<svg xmlns="http://www.w3.org/2000/svg" width="1733" height="292" viewBox="0 0 1733 292" version="1.1"><path d="" stroke="none" fill="#080404" fill-rule="evenodd"/><path d="M 827 0.655 C 814.219 1.880, 803.223 3.400, 795 5.080 C 731.852 17.974, 691.109 55.794, 678.952 112.801 C 677.517 119.531, 676.707 128.010, 676.307 140.500 C 674.209 206.008, 697.511 250.048, 746.443 273.048 C 764.030 281.315, 781.483 286.016, 808 289.627 C 825.738 292.043, 866.873 292.069, 884 289.675 C 914.479 285.415, 941.684 275.801, 956.500 264.055 C 959.250 261.875, 962.695 259.170, 964.157 258.044 L 966.813 255.997 972.157 269.490 L 977.500 282.984 999.250 282.992 L 1021 283 1021 205 L 1021 127 947 127 L 873 127 873 156 L 873 185 900.608 185 L 928.217 185 927.533 187.750 C 924.812 198.692, 915.218 211.703, 904.666 218.760 C 879.823 235.377, 833.572 236.354, 807.191 220.821 C 804.089 218.994, 798.152 214.125, 793.997 210 C 782.385 198.472, 775.398 183.598, 772.470 164.176 C 770.618 151.890, 770.618 140.110, 772.470 127.824 C 777.596 93.821, 796.863 71.062, 827.500 62.820 C 838.473 59.869, 864.660 59.599, 876.254 62.319 C 885.488 64.485, 895.855 69.472, 901.923 74.666 C 907.204 79.187, 913.269 88.284, 915.521 95.063 L 917.161 100 969.080 100 C 1012.408 100, 1021 99.773, 1021 98.628 C 1021 97.874, 1019.898 92.913, 1018.552 87.605 C 1011.115 58.288, 991.461 35.649, 960.687 20.952 C 937.773 10.008, 910.702 3.610, 876.500 1.054 C 863.602 0.090, 835.277 -0.138, 827 0.655 M 1211 0.655 C 1198.219 1.880, 1187.223 3.400, 1179 5.080 C 1115.852 17.974, 1075.109 55.794, 1062.952 112.801 C 1061.517 119.531, 1060.707 128.010, 1060.307 140.500 C 1058.209 206.008, 1081.511 250.048, 1130.443 273.048 C 1148.030 281.315, 1165.483 286.016, 1192 289.627 C 1209.738 292.043, 1250.873 292.069, 1268 289.675 C 1298.479 285.415, 1325.684 275.801, 1340.500 264.055 C 1343.250 261.875, 1346.695 259.170, 1348.157 258.044 L 1350.813 255.997 1356.157 269.490 L 1361.500 282.984 1383.250 282.992 L 1405 283 1405 205 L 1405 127 1331 127 L 1257 127 1257 156 L 1257 185 1284.608 185 L 1312.217 185 1311.533 187.750 C 1308.812 198.692, 1299.218 211.703, 1288.666 218.760 C 1263.823 235.377, 1217.572 236.354, 1191.191 220.821 C 1188.089 218.994, 1182.152 214.125, 1177.997 210 C 1166.385 198.472, 1159.398 183.598, 1156.470 164.176 C 1154.618 151.890, 1154.618 140.110, 1156.470 127.824 C 1161.596 93.821, 1180.863 71.062, 1211.500 62.820 C 1222.473 59.869, 1248.660 59.599, 1260.254 62.319 C 1269.488 64.485, 1279.855 69.472, 1285.923 74.666 C 1291.204 79.187, 1297.269 88.284, 1299.521 95.063 L 1301.161 100 1353.080 100 C 1396.408 100, 1405 99.773, 1405 98.628 C 1405 97.874, 1403.898 92.913, 1402.552 87.605 C 1395.115 58.288, 1375.461 35.649, 1344.687 20.952 C 1321.773 10.008, 1294.702 3.610, 1260.500 1.054 C 1247.602 0.090, 1219.277 -0.138, 1211 0.655 M 0.667 8.667 C 0.300 9.033, -0 70.924, -0 146.200 L 0 283.068 122.750 282.720 C 234.295 282.403, 246.139 282.216, 252.500 280.666 C 269.576 276.505, 281.276 271.402, 291.691 263.573 C 312.197 248.158, 322.546 220.295, 319.050 189.907 C 316.420 167.034, 307.860 151.402, 292.249 140.960 C 288.135 138.209, 282.121 135.179, 278.886 134.229 C 275.650 133.278, 273.007 132.275, 273.013 132 C 273.018 131.725, 274.930 130.609, 277.261 129.519 C 279.593 128.430, 284.464 124.605, 288.088 121.019 C 312.064 97.291, 311.826 52.431, 287.597 28.486 C 276.071 17.096, 261.818 11.287, 239.869 9.034 C 228.697 7.888, 1.794 7.539, 0.667 8.667 M 443.425 9.121 C 443.044 9.737, 416.078 71.617, 383.500 146.630 L 324.268 283.019 373.801 282.759 L 423.334 282.500 431.319 260.750 L 439.303 239 499.021 239 L 558.739 239 566.028 258.750 C 570.038 269.613, 573.685 279.512, 574.134 280.750 L 574.950 283 624.387 283 L 673.825 283 623.860 166.750 C 596.379 102.813, 569.795 40.938, 564.784 29.250 L 555.672 8 499.895 8 C 459.779 8, 443.924 8.315, 443.425 9.121 M 1458 145.500 L 1458 283 1595.500 283 L 1733 283 1733 253 L 1733 223 1641.500 223 L 1550 223 1550 199 L 1550 175 1636 175 L 1722 175 1722 146 L 1722 117 1636 117 L 1550 117 1550 92.500 L 1550 68 1641.500 68 L 1733 68 1733 38 L 1733 8 1595.500 8 L 1458 8 1458 145.500 M 92 90.984 L 92 114.086 142.750 113.793 L 193.500 113.500 198.892 110.514 C 207.990 105.475, 212.085 96.261, 209.883 85.784 C 208.993 81.547, 207.854 79.607, 204.136 75.992 C 196.451 68.520, 197.669 68.671, 141.750 68.253 L 92 67.881 92 90.984 M 497.748 82 C 493.662 91.693, 461.758 180.091, 462.190 180.523 C 462.466 180.799, 479.327 180.907, 499.659 180.762 L 536.627 180.500 518.825 132 C 509.033 105.325, 500.617 82.375, 500.123 81 L 499.223 78.500 497.748 82 M 92 196 L 92 223 144.818 223 C 203.242 223, 203.999 222.929, 212.206 216.678 C 214.568 214.879, 217.625 211.403, 219 208.953 C 221.152 205.121, 221.500 203.246, 221.500 195.500 C 221.500 187.480, 221.200 185.990, 218.746 181.815 C 215.479 176.258, 211.893 173.514, 204.504 170.917 C 199.390 169.120, 195.713 169, 145.525 169 L 92 169 92 196" stroke="none" fill="#040404" fill-rule="evenodd"/></svg>